<svg id="visual" viewBox="0 0 960 540" width="960" height="540" xmlns="http://www.w3.org/2000/svg" xmlns:xlink="http://www.w3.org/1999/xlink" version="1.1"><path d="M0 39L14.5 42.5C29 46 58 53 87.2 51.2C116.3 49.3 145.7 38.7 174.8 39.7C204 40.7 233 53.3 262 55.2C291 57 320 48 349 44.3C378 40.7 407 42.3 436.2 42.3C465.3 42.3 494.7 40.7 523.8 38.8C553 37 582 35 611 40.3C640 45.7 669 58.3 698 57.5C727 56.7 756 42.3 785.2 34.3C814.3 26.3 843.7 24.7 872.8 30C902 35.3 931 47.7 945.5 53.8L960 60L960 0L945.5 0C931 0 902 0 872.8 0C843.7 0 814.3 0 785.2 0C756 0 727 0 698 0C669 0 640 0 611 0C582 0 553 0 523.8 0C494.7 0 465.3 0 436.2 0C407 0 378 0 349 0C320 0 291 0 262 0C233 0 204 0 174.8 0C145.7 0 116.3 0 87.2 0C58 0 29 0 14.5 0L0 0Z" fill="#282828"></path><path d="M0 87L14.5 93.3C29 99.7 58 112.3 87.2 112.3C116.3 112.3 145.7 99.7 174.8 103.3C204 107 233 127 262 135.2C291 143.3 320 139.7 349 136C378 132.3 407 128.7 436.2 127.8C465.3 127 494.7 129 523.8 131.7C553 134.3 582 137.7 611 142.2C640 146.7 669 152.3 698 145.2C727 138 756 118 785.2 109.8C814.3 101.7 843.7 105.3 872.8 107.2C902 109 931 109 945.5 109L960 109L960 58L945.5 51.8C931 45.7 902 33.3 872.8 28C843.7 22.7 814.3 24.3 785.2 32.3C756 40.3 727 54.7 698 55.5C669 56.3 640 43.7 611 38.3C582 33 553 35 523.8 36.8C494.7 38.7 465.3 40.3 436.2 40.3C407 40.3 378 38.7 349 42.3C320 46 291 55 262 53.2C233 51.3 204 38.7 174.8 37.7C145.7 36.7 116.3 47.3 87.2 49.2C58 51 29 44 14.5 40.5L0 37Z" fill="#222222"></path><path d="M0 104L14.5 113C29 122 58 140 87.2 140C116.3 140 145.7 122 174.8 123.7C204 125.3 233 146.7 262 158.3C291 170 320 172 349 173C378 174 407 174 436.2 172.2C465.3 170.3 494.7 166.7 523.8 164C553 161.3 582 159.7 611 162.3C640 165 669 172 698 167.5C727 163 756 147 785.2 140.7C814.3 134.3 843.7 137.7 872.8 141.2C902 144.7 931 148.3 945.5 150.2L960 152L960 107L945.5 107C931 107 902 107 872.8 105.2C843.7 103.3 814.3 99.7 785.2 107.8C756 116 727 136 698 143.2C669 150.3 640 144.7 611 140.2C582 135.7 553 132.3 523.8 129.7C494.7 127 465.3 125 436.2 125.8C407 126.7 378 130.3 349 134C320 137.7 291 141.3 262 133.2C233 125 204 105 174.8 101.3C145.7 97.7 116.3 110.3 87.2 110.3C58 110.3 29 97.7 14.5 91.3L0 85Z" fill="#1c1c1c"></path><path d="M0 125L14.5 135C29 145 58 165 87.2 163.2C116.3 161.3 145.7 137.7 174.8 136.7C204 135.7 233 157.3 262 170C291 182.7 320 186.3 349 189C378 191.7 407 193.3 436.2 192.5C465.3 191.7 494.7 188.3 523.8 186.7C553 185 582 185 611 187.7C640 190.3 669 195.7 698 188.3C727 181 756 161 785.2 153.8C814.3 146.7 843.7 152.3 872.8 159.7C902 167 931 176 945.5 180.5L960 185L960 150L945.5 148.2C931 146.3 902 142.7 872.8 139.2C843.7 135.7 814.3 132.3 785.2 138.7C756 145 727 161 698 165.5C669 170 640 163 611 160.3C582 157.7 553 159.3 523.8 162C494.7 164.7 465.3 168.3 436.2 170.2C407 172 378 172 349 171C320 170 291 168 262 156.3C233 144.7 204 123.3 174.8 121.7C145.7 120 116.3 138 87.2 138C58 138 29 120 14.5 111L0 102Z" fill="#161616"></path><path d="M0 147L14.5 164C29 181 58 215 87.2 220.3C116.3 225.7 145.7 202.3 174.8 199.7C204 197 233 215 262 221.3C291 227.7 320 222.3 349 224.2C378 226 407 235 436.2 235.8C465.3 236.7 494.7 229.3 523.8 229.3C553 229.3 582 236.7 611 240.3C640 244 669 244 698 231.3C727 218.7 756 193.3 785.2 188.8C814.3 184.3 843.7 200.7 872.8 211.5C902 222.3 931 227.7 945.5 230.3L960 233L960 183L945.5 178.5C931 174 902 165 872.8 157.7C843.7 150.3 814.3 144.7 785.2 151.8C756 159 727 179 698 186.3C669 193.7 640 188.3 611 185.7C582 183 553 183 523.8 184.7C494.7 186.3 465.3 189.7 436.2 190.5C407 191.3 378 189.7 349 187C320 184.3 291 180.7 262 168C233 155.3 204 133.7 174.8 134.7C145.7 135.7 116.3 159.3 87.2 161.2C58 163 29 143 14.5 133L0 123Z" fill="#0f0f0f"></path><path d="M0 266L14.5 274C29 282 58 298 87.2 305.2C116.3 312.3 145.7 310.7 174.8 318.8C204 327 233 345 262 348.5C291 352 320 341 349 342.8C378 344.7 407 359.3 436.2 354.8C465.3 350.3 494.7 326.7 523.8 323C553 319.3 582 335.7 611 333C640 330.3 669 308.7 698 290.7C727 272.7 756 258.3 785.2 268.3C814.3 278.3 843.7 312.7 872.8 323.5C902 334.3 931 321.7 945.5 315.3L960 309L960 231L945.5 228.3C931 225.7 902 220.3 872.8 209.5C843.7 198.7 814.3 182.3 785.2 186.8C756 191.3 727 216.7 698 229.3C669 242 640 242 611 238.3C582 234.7 553 227.3 523.8 227.3C494.7 227.3 465.3 234.7 436.2 233.8C407 233 378 224 349 222.2C320 220.3 291 225.7 262 219.3C233 213 204 195 174.8 197.7C145.7 200.3 116.3 223.7 87.2 218.3C58 213 29 179 14.5 162L0 145Z" fill="#050505"></path><path d="M0 298L14.5 304.3C29 310.7 58 323.3 87.2 329.7C116.3 336 145.7 336 174.8 343.2C204 350.3 233 364.7 262 368.2C291 371.7 320 364.3 349 368C378 371.7 407 386.3 436.2 380.2C465.3 374 494.7 347 523.8 345.2C553 343.3 582 366.7 611 366.7C640 366.7 669 343.3 698 325.3C727 307.3 756 294.7 785.2 302.7C814.3 310.7 843.7 339.3 872.8 347.3C902 355.3 931 342.7 945.5 336.3L960 330L960 307L945.5 313.3C931 319.7 902 332.3 872.8 321.5C843.7 310.7 814.3 276.3 785.2 266.3C756 256.3 727 270.7 698 288.7C669 306.7 640 328.3 611 331C582 333.7 553 317.3 523.8 321C494.7 324.7 465.3 348.3 436.2 352.8C407 357.3 378 342.7 349 340.8C320 339 291 350 262 346.5C233 343 204 325 174.8 316.8C145.7 308.7 116.3 310.3 87.2 303.2C58 296 29 280 14.5 272L0 264Z" fill="#000000"></path><path d="M0 422L14.5 429.2C29 436.3 58 450.7 87.2 457.8C116.3 465 145.7 465 174.8 464.2C204 463.3 233 461.7 262 459C291 456.3 320 452.7 349 451.8C378 451 407 453 436.2 450.3C465.3 447.7 494.7 440.3 523.8 443.8C553 447.3 582 461.7 611 467C640 472.3 669 468.7 698 459.7C727 450.7 756 436.3 785.2 429.2C814.3 422 843.7 422 872.8 424.7C902 427.3 931 432.7 945.5 435.3L960 438L960 328L945.5 334.3C931 340.7 902 353.3 872.8 345.3C843.7 337.3 814.3 308.7 785.2 300.7C756 292.7 727 305.3 698 323.3C669 341.3 640 364.7 611 364.7C582 364.7 553 341.3 523.8 343.2C494.7 345 465.3 372 436.2 378.2C407 384.3 378 369.7 349 366C320 362.3 291 369.7 262 366.2C233 362.7 204 348.3 174.8 341.2C145.7 334 116.3 334 87.2 327.7C58 321.3 29 308.7 14.5 302.3L0 296Z" fill="#000000"></path><path d="M0 460L14.5 466.3C29 472.7 58 485.3 87.2 490.7C116.3 496 145.7 494 174.8 490.3C204 486.7 233 481.3 262 476.8C291 472.3 320 468.7 349 473.2C378 477.7 407 490.3 436.2 493.2C465.3 496 494.7 489 523.8 488.2C553 487.3 582 492.7 611 494.3C640 496 669 494 698 485C727 476 756 460 785.2 454.7C814.3 449.3 843.7 454.7 872.8 460C902 465.3 931 470.7 945.5 473.3L960 476L960 436L945.5 433.3C931 430.7 902 425.3 872.8 422.7C843.7 420 814.3 420 785.2 427.2C756 434.3 727 448.7 698 457.7C669 466.7 640 470.3 611 465C582 459.7 553 445.3 523.8 441.8C494.7 438.3 465.3 445.7 436.2 448.3C407 451 378 449 349 449.8C320 450.7 291 454.3 262 457C233 459.7 204 461.3 174.8 462.2C145.7 463 116.3 463 87.2 455.8C58 448.7 29 434.3 14.5 427.2L0 420Z" fill="#000000"></path><path d="M0 492L14.5 495.7C29 499.3 58 506.7 87.2 508.5C116.3 510.3 145.7 506.7 174.8 504C204 501.3 233 499.7 262 497C291 494.3 320 490.7 349 493.3C378 496 407 505 436.2 507.7C465.3 510.3 494.7 506.7 523.8 507.5C553 508.3 582 513.7 611 516.3C640 519 669 519 698 512.8C727 506.7 756 494.3 785.2 489C814.3 483.7 843.7 485.3 872.8 490.7C902 496 931 505 945.5 509.5L960 514L960 474L945.5 471.3C931 468.7 902 463.3 872.8 458C843.7 452.7 814.3 447.3 785.2 452.7C756 458 727 474 698 483C669 492 640 494 611 492.3C582 490.7 553 485.3 523.8 486.2C494.7 487 465.3 494 436.2 491.2C407 488.3 378 475.7 349 471.2C320 466.7 291 470.3 262 474.8C233 479.3 204 484.7 174.8 488.3C145.7 492 116.3 494 87.2 488.7C58 483.3 29 470.7 14.5 464.3L0 458Z" fill="#000000"></path><path d="M0 519L14.5 520.8C29 522.7 58 526.3 87.2 526.3C116.3 526.3 145.7 522.7 174.8 520.8C204 519 233 519 262 519C291 519 320 519 349 520.8C378 522.7 407 526.3 436.2 528.2C465.3 530 494.7 530 523.8 530C553 530 582 530 611 530C640 530 669 530 698 527.3C727 524.7 756 519.3 785.2 517.5C814.3 515.7 843.7 517.3 872.8 520C902 522.7 931 526.3 945.5 528.2L960 530L960 512L945.5 507.5C931 503 902 494 872.8 488.7C843.7 483.3 814.3 481.7 785.2 487C756 492.3 727 504.7 698 510.8C669 517 640 517 611 514.3C582 511.7 553 506.3 523.8 505.5C494.7 504.7 465.3 508.3 436.2 505.7C407 503 378 494 349 491.3C320 488.7 291 492.3 262 495C233 497.7 204 499.3 174.8 502C145.7 504.7 116.3 508.3 87.2 506.5C58 504.7 29 497.3 14.5 493.7L0 490Z" fill="#000000"></path><path d="M0 541L14.5 541C29 541 58 541 87.2 541C116.3 541 145.7 541 174.8 541C204 541 233 541 262 541C291 541 320 541 349 541C378 541 407 541 436.2 541C465.3 541 494.7 541 523.8 541C553 541 582 541 611 541C640 541 669 541 698 541C727 541 756 541 785.2 541C814.3 541 843.7 541 872.8 541C902 541 931 541 945.5 541L960 541L960 528L945.5 526.2C931 524.3 902 520.7 872.8 518C843.7 515.3 814.3 513.7 785.2 515.5C756 517.3 727 522.7 698 525.3C669 528 640 528 611 528C582 528 553 528 523.8 528C494.7 528 465.3 528 436.2 526.2C407 524.3 378 520.7 349 518.8C320 517 291 517 262 517C233 517 204 517 174.8 518.8C145.7 520.7 116.3 524.3 87.2 524.3C58 524.3 29 520.7 14.5 518.8L0 517Z" fill="#000000"></path></svg>